# xmcd CD database file
#
# Track frame offsets:
#	183
#	7583
#	17333
#	27283
#	38070
#	57645
#	75683
#	90545
#	109933
#	122645
#	131883
#	146108
#	156320
#	167183
#	197483
#	213870
#	218208
#	225245
#	241845
#	248633
#	272520
#	280273
#	301645
#	317770
#
# Disc length: 4468 seconds
#
# Revision: 1
# Processed by: cddbd v1.5.2PL0 Copyright (c) Steve Scherf et al.
# Submitted via: CDex 1.51
#
DISCID=3a117218
DTITLE=Welsh National Opera Orchestra - Mackerras - Elgar The Dream Children Op.43
DYEAR=1990
DGENRE=Orchestral
TTITLE0=The Wand of Youth - Suite No.1 Op.1a -I- Overture
TTITLE1=The Wand of Youth - Suite No.1 Op.1a -II- Serenade
TTITLE2=The Wand of Youth - Suite No.1 Op.1a -III- Minuet
TTITLE3=The Wand of Youth - Suite No.1 Op.1a -IV- Sun Dance
TTITLE4=The Wand of Youth - Suite No.1 Op.1a -V- Fairy Pipers
TTITLE5=The Wand of Youth - Suite No.1 Op.1a -VI- Slumber Scene
TTITLE6=The Wand of Youth - Suite No.1 Op.1a -VII- Fairies and Giants
TTITLE7=The Wand of Youth - Suite No.2 Op.1b -I- March
TTITLE8=The Wand of Youth - Suite No.2 Op.1b -II- Little Bells
TTITLE9=The Wand of Youth - Suite No.2 Op.1b -III- Moths and Butterflies
TTITLE10=The Wand of Youth - Suite No.2 Op.1b -IV- Fountain Dance
TTITLE11=The Wand of Youth - Suite No.2 Op.1b -V- The Tame Bear
TTITLE12=The Wand of Youth - Suite No.2 Op.1b -VI- The Wild Bears
TTITLE13=The Starlight Express Op.78 -I- O Children, Open Your Arms To Me
TTITLE14=The Starlight Express Op.78 -II- There's a Fairy That Hides
TTITLE15=The Starlight Express Op.78 -III- I'm Everywhere
TTITLE16=The Starlight Express Op.78 -IV- Wake Up, You Little Night Winds
TTITLE17=The Starlight Express Op.78 -V- O Stars, Shine Brightly!
TTITLE18=The Starlight Express Op.78 -VI- We Shall Meet The Morning Spiders
TTITLE19=The Starlight Express Op.78 -VII- My Old Tunes Are Rather Broken
TTITLE20=The Starlight Express Op.78 -VIII- O, Think Beauty
TTITLE21=The Starlight Express Op.78 -IX- Dustman, Laugher, Tramp and Busy Sweep
TTITLE22=Dream Children Op.43 -I- Andante
TTITLE23=Dream Children Op.43 -II- Allegretto Piacevole
EXTD=YEAR: 1990
EXTT0=
EXTT1=
EXTT2=
EXTT3=
EXTT4=
EXTT5=
EXTT6=
EXTT7=
EXTT8=
EXTT9=
EXTT10=
EXTT11=
EXTT12=
EXTT13=
EXTT14=
EXTT15=
EXTT16=
EXTT17=
EXTT18=
EXTT19=
EXTT20=
EXTT21=
EXTT22=
EXTT23=
PLAYORDER=
